<svg width="22" height="22" viewBox="0 0 22 22" fill="none" xmlns="http://www.w3.org/2000/svg">
<path fill-rule="evenodd" clip-rule="evenodd" d="M11 22C17.0751 22 22 17.0751 22 11C22 4.92487 17.0751 0 11 0C4.92487 0 0 4.92487 0 11C0 17.0751 4.92487 22 11 22ZM14.9483 9.63162C15.3063 9.27363 15.3063 8.69323 14.9483 8.33525C14.5903 7.97727 14.0099 7.97727 13.6519 8.33525L10.0834 11.9037L8.5316 10.3519C8.17362 9.99394 7.59322 9.99394 7.23524 10.3519C6.87726 10.7099 6.87726 11.2903 7.23524 11.6483L9.43524 13.8483C9.79322 14.2063 10.3736 14.2063 10.7316 13.8483L14.9483 9.63162Z" fill="#6BBEA0"/>
</svg>
